<svg width="42" height="34" viewBox="0 0 42 34" fill="none" xmlns="http://www.w3.org/2000/svg">
<path d="M31.6905 16.1638C30.1415 15.9458 28.6881 15.3326 27.4919 14.3924C26.2959 13.4522 25.4041 12.222 24.9161 10.8388C24.4281 9.45548 24.3629 7.97349 24.7278 6.55783C25.0927 5.14217 25.8734 3.84841 26.983 2.82068C30.2901 -0.252245 36.6534 -1.18059 39.9605 1.89234C40.1788 2.09503 40.3804 2.3125 40.5639 2.54294L31.6905 16.1638Z" fill="url(#paint0_linear_97620_106)"/>
<path d="M38.9615 13.9493C38.0226 14.8238 36.8746 15.4801 35.6113 15.8648C34.3478 16.2496 33.0045 16.352 31.6907 16.1637C31.1669 14.7273 30.9874 13.2019 31.1647 11.6942C31.3417 10.1866 31.8715 8.73315 32.7166 7.43565C33.5618 6.13816 34.7019 5.02799 36.0572 4.18282C37.4126 3.33767 38.95 2.77793 40.5627 2.54285C43.1315 5.74007 42.049 11.0819 38.9615 13.9493Z" fill="url(#paint1_linear_97620_106)"/>
<path d="M10.3065 16.1638C11.8555 15.9458 13.309 15.3326 14.5051 14.3924C15.7012 13.4522 16.5929 12.222 17.081 10.8388C17.569 9.45548 17.6342 7.97349 17.2693 6.55783C16.9044 5.14217 16.1237 3.84841 15.0141 2.82068C11.7069 -0.252245 5.34367 -1.18059 2.03783 1.89234C1.81886 2.09469 1.61673 2.31218 1.43317 2.54294L10.3065 16.1638Z" fill="url(#paint2_linear_97620_106)"/>
<path d="M3.03697 13.9493C3.97578 14.8237 5.1234 15.48 6.38657 15.8648C7.64972 16.2495 8.99275 16.3519 10.3065 16.1636C10.7009 15.0859 10.9015 13.9551 10.9003 12.8168C10.8996 10.3369 9.94527 7.93886 8.20935 6.05523C6.47342 4.17158 4.07021 2.92632 1.43319 2.54407C-1.1274 5.74002 -0.0518418 11.0818 3.03697 13.9493Z" fill="url(#paint3_linear_97620_106)"/>
<path d="M6.3585 6.88534C6.09964 6.64591 5.78856 6.46082 5.44622 6.34249C5.10389 6.22419 4.73826 6.17541 4.37391 6.19945C4.00959 6.22347 3.65502 6.31977 3.33411 6.48183C3.0132 6.64392 2.7334 6.86798 2.51353 7.13898C1.7708 8.04582 1.10586 9.00544 0.524841 10.009C1.0139 11.4886 1.87421 12.8392 3.03492 13.9494C3.70084 14.5694 4.47356 15.0816 5.32116 15.4649L7.02321 9.13646C7.13076 8.73982 7.12605 8.32408 7.00958 7.92965C6.89311 7.53521 6.66883 7.17546 6.3585 6.88534Z" fill="#FD748D"/>
<path d="M2.13067 22.4138C2.02538 21.6721 1.97294 20.9247 1.9737 20.1766C2.0162 15.5142 4.03934 11.0563 7.6026 7.77335C11.1658 4.49043 15.9806 2.64844 20.9986 2.64844C26.0166 2.64844 30.8314 4.49043 34.3948 7.77335C37.9579 11.0563 39.9811 15.5142 40.0234 20.1766C40.025 20.9252 39.9726 21.673 39.8665 22.415L2.13067 22.4138Z" fill="url(#paint4_linear_97620_106)"/>
<path d="M39.8679 22.4148C38.6614 30.756 30.6726 34 20.9992 34C11.3261 34 3.33583 30.756 2.13062 22.4135C7.04431 18.0482 11.958 19.5866 17.1447 10.4794C17.5149 9.82895 18.0708 9.28574 18.7512 8.90934C19.2598 8.62683 19.8248 8.44311 20.412 8.36929C20.9992 8.29545 21.5964 8.33307 22.1675 8.47982C22.7385 8.62659 23.2717 8.87947 23.7346 9.22317C24.1975 9.56686 24.5805 9.99422 24.8606 10.4794C30.0379 19.5866 34.9609 18.0482 39.8748 22.4148H39.8679Z" fill="url(#paint5_linear_97620_106)"/>
<path d="M8.79 20.4632C9.93583 20.4632 10.8647 19.7693 10.8647 18.9134C10.8647 18.0575 9.93583 17.3636 8.79 17.3636C7.64418 17.3636 6.71533 18.0575 6.71533 18.9134C6.71533 19.7693 7.64418 20.4632 8.79 20.4632Z" fill="#FFAECF"/>
<path d="M33.2071 20.4632C34.353 20.4632 35.2818 19.7693 35.2818 18.9134C35.2818 18.0575 34.353 17.3636 33.2071 17.3636C32.0615 17.3636 31.1324 18.0575 31.1324 18.9134C31.1324 19.7693 32.0615 20.4632 33.2071 20.4632Z" fill="#FFAECF"/>
<path d="M12.347 18.9133C14.6191 18.9133 16.4609 17.202 16.4609 15.0909C16.4609 12.9798 14.6191 11.2684 12.347 11.2684C10.075 11.2684 8.23315 12.9798 8.23315 15.0909C8.23315 17.202 10.075 18.9133 12.347 18.9133Z" fill="white"/>
<path d="M29.6501 18.9133C31.9221 18.9133 33.7641 17.202 33.7641 15.0909C33.7641 12.9798 31.9221 11.2684 29.6501 11.2684C27.378 11.2684 25.5363 12.9798 25.5363 15.0909C25.5363 17.202 27.378 18.9133 29.6501 18.9133Z" fill="white"/>
<path d="M12.3471 17.3698C13.7017 17.3698 14.7999 16.3494 14.7999 15.0908C14.7999 13.8321 13.7017 12.8118 12.3471 12.8118C10.9925 12.8118 9.89435 13.8321 9.89435 15.0908C9.89435 16.3494 10.9925 17.3698 12.3471 17.3698Z" fill="#383842"/>
<path d="M29.6501 17.3698C31.0046 17.3698 32.1029 16.3494 32.1029 15.0908C32.1029 13.8321 31.0046 12.8118 29.6501 12.8118C28.2955 12.8118 27.1973 13.8321 27.1973 15.0908C27.1973 16.3494 28.2955 17.3698 29.6501 17.3698Z" fill="#383842"/>
<path d="M22.3641 20.1321C21.8768 20.1285 21.4017 19.9903 20.9992 19.7352C20.597 19.991 20.1217 20.1293 19.6343 20.1321C19.2789 20.1261 18.9287 20.0517 18.6059 19.9135C18.2831 19.7753 17.9947 19.5764 17.7589 19.3293C17.6392 19.2029 17.5774 19.0382 17.5864 18.87C17.5954 18.7019 17.6746 18.5437 17.8071 18.429C17.9397 18.3142 18.1151 18.252 18.2962 18.2556C18.4774 18.2591 18.6498 18.3281 18.7771 18.4479C18.8782 18.5695 19.008 18.668 19.1565 18.7357C19.305 18.8035 19.4682 18.8387 19.6336 18.8387C19.799 18.8387 19.9622 18.8035 20.1107 18.7357C20.2592 18.668 20.3889 18.5695 20.4901 18.4479C20.5552 18.383 20.634 18.3312 20.7216 18.2958C20.8092 18.2605 20.9037 18.2422 20.9992 18.2422C21.0947 18.2422 21.1892 18.2605 21.2768 18.2958C21.3644 18.3312 21.4432 18.383 21.5083 18.4479C21.6094 18.5695 21.7392 18.668 21.8877 18.7357C22.0362 18.8035 22.1994 18.8387 22.3648 18.8387C22.5302 18.8387 22.6934 18.8035 22.8419 18.7357C22.9903 18.668 23.1201 18.5695 23.2213 18.4479C23.3485 18.3281 23.521 18.2591 23.7021 18.2556C23.8832 18.252 24.0587 18.3142 24.1913 18.429C24.3238 18.5437 24.403 18.7019 24.412 18.87C24.421 19.0382 24.3591 19.2029 24.2395 19.3293C24.0039 19.5764 23.7157 19.7753 23.3931 19.9135C23.0706 20.0517 22.7193 20.1261 22.3641 20.1321Z" fill="#383842"/>
<defs>
<linearGradient id="paint0_linear_97620_106" x1="2632.15" y1="3856.02" x2="4486.19" y2="3856.02" gradientUnits="userSpaceOnUse">
<stop stop-color="#4F4C5F"/>
<stop offset="1" stop-color="#77718A"/>
</linearGradient>
<linearGradient id="paint1_linear_97620_106" x1="31.1002" y1="9.3967" x2="41.9998" y2="9.3967" gradientUnits="userSpaceOnUse">
<stop stop-color="#FD869C"/>
<stop offset="1" stop-color="#FDB0BF"/>
</linearGradient>
<linearGradient id="paint2_linear_97620_106" x1="-53.683" y1="3856.02" x2="1800.34" y2="3856.02" gradientUnits="userSpaceOnUse">
<stop stop-color="#77718A"/>
<stop offset="1" stop-color="#4F4C5F"/>
</linearGradient>
<linearGradient id="paint3_linear_97620_106" x1="-0.000602629" y1="9.39665" x2="10.9004" y2="9.39665" gradientUnits="userSpaceOnUse">
<stop stop-color="#FDB0BF"/>
<stop offset="1" stop-color="#FD869C"/>
</linearGradient>
<linearGradient id="paint4_linear_97620_106" x1="20.9996" y1="22.4144" x2="20.9996" y2="2.49817" gradientUnits="userSpaceOnUse">
<stop stop-color="#FDB58A"/>
<stop offset="1" stop-color="#3C2313"/>
</linearGradient>
<linearGradient id="paint5_linear_97620_106" x1="20.9996" y1="34.0008" x2="20.9996" y2="8.33074" gradientUnits="userSpaceOnUse">
<stop stop-color="#FFF5E3"/>
<stop offset="1" stop-color="#F0A83E"/>
</linearGradient>
</defs>
</svg>
